<svg width="720" height="175" viewBox="0 0 720 175" fill="none" xmlns="http://www.w3.org/2000/svg">
<path d="M226.368 43.608V111H209.952V43.608H226.368Z" fill="#FB4BFF"/>
<path d="M287.609 74.904C292.046 74.904 295.566 76.248 298.169 78.936C300.814 81.624 302.137 85.3573 302.137 90.136V111H291.257V91.608C291.257 89.304 290.638 87.5333 289.401 86.296C288.206 85.016 286.542 84.376 284.409 84.376C282.275 84.376 280.59 85.016 279.353 86.296C278.158 87.5333 277.561 89.304 277.561 91.608V111H266.681V91.608C266.681 89.304 266.062 87.5333 264.825 86.296C263.63 85.016 261.966 84.376 259.833 84.376C257.699 84.376 256.014 85.016 254.777 86.296C253.582 87.5333 252.985 89.304 252.985 91.608V111H242.041V75.288H252.985V79.768C254.094 78.2747 255.545 77.1013 257.337 76.248C259.129 75.352 261.155 74.904 263.417 74.904C266.105 74.904 268.494 75.48 270.585 76.632C272.718 77.784 274.382 79.4267 275.577 81.56C276.814 79.5973 278.499 77.9973 280.633 76.76C282.766 75.5227 285.091 74.904 287.609 74.904ZM311.454 93.08C311.454 89.4107 312.137 86.1893 313.502 83.416C314.91 80.6427 316.809 78.5093 319.198 77.016C321.588 75.5227 324.254 74.776 327.198 74.776C329.716 74.776 331.913 75.288 333.79 76.312C335.71 77.336 337.182 78.68 338.206 80.344V75.288H349.151V111H338.206V105.944C337.14 107.608 335.647 108.952 333.726 109.976C331.849 111 329.652 111.512 327.134 111.512C324.233 111.512 321.588 110.765 319.198 109.272C316.809 107.736 314.91 105.581 313.502 102.808C312.137 99.992 311.454 96.7493 311.454 93.08ZM338.206 93.144C338.206 90.4133 337.438 88.2587 335.903 86.68C334.409 85.1013 332.574 84.312 330.398 84.312C328.222 84.312 326.366 85.1013 324.83 86.68C323.337 88.216 322.59 90.3493 322.59 93.08C322.59 95.8107 323.337 97.9867 324.83 99.608C326.366 101.187 328.222 101.976 330.398 101.976C332.574 101.976 334.409 101.187 335.903 99.608C337.438 98.0293 338.206 95.8747 338.206 93.144ZM374.476 74.776C376.993 74.776 379.191 75.288 381.068 76.312C382.988 77.336 384.46 78.68 385.484 80.344V75.288H396.428V110.936C396.428 114.221 395.767 117.187 394.444 119.832C393.164 122.52 391.18 124.653 388.492 126.232C385.847 127.811 382.54 128.6 378.572 128.6C373.281 128.6 368.993 127.341 365.708 124.824C362.423 122.349 360.545 118.979 360.076 114.712H370.892C371.233 116.077 372.044 117.144 373.324 117.912C374.604 118.723 376.183 119.128 378.06 119.128C380.321 119.128 382.113 118.467 383.436 117.144C384.801 115.864 385.484 113.795 385.484 110.936V105.88C384.417 107.544 382.945 108.909 381.068 109.976C379.191 111 376.993 111.512 374.476 111.512C371.532 111.512 368.865 110.765 366.476 109.272C364.087 107.736 362.188 105.581 360.78 102.808C359.415 99.992 358.732 96.7493 358.732 93.08C358.732 89.4107 359.415 86.1893 360.78 83.416C362.188 80.6427 364.087 78.5093 366.476 77.016C368.865 75.5227 371.532 74.776 374.476 74.776ZM385.484 93.144C385.484 90.4133 384.716 88.2587 383.18 86.68C381.687 85.1013 379.852 84.312 377.676 84.312C375.5 84.312 373.644 85.1013 372.108 86.68C370.615 88.216 369.868 90.3493 369.868 93.08C369.868 95.8107 370.615 97.9867 372.108 99.608C373.644 101.187 375.5 101.976 377.676 101.976C379.852 101.976 381.687 101.187 383.18 99.608C384.716 98.0293 385.484 95.8747 385.484 93.144ZM441.849 92.568C441.849 93.592 441.785 94.6587 441.658 95.768H416.889C417.06 97.9867 417.764 99.6933 419.001 100.888C420.281 102.04 421.839 102.616 423.674 102.616C426.404 102.616 428.303 101.464 429.369 99.16H441.018C440.42 101.507 439.332 103.619 437.754 105.496C436.218 107.373 434.276 108.845 431.93 109.912C429.583 110.979 426.959 111.512 424.057 111.512C420.559 111.512 417.444 110.765 414.713 109.272C411.983 107.779 409.849 105.645 408.313 102.872C406.777 100.099 406.009 96.856 406.009 93.144C406.009 89.432 406.756 86.1893 408.249 83.416C409.785 80.6427 411.919 78.5093 414.649 77.016C417.38 75.5227 420.516 74.776 424.057 74.776C427.514 74.776 430.586 75.5013 433.274 76.952C435.962 78.4027 438.052 80.472 439.546 83.16C441.081 85.848 441.849 88.984 441.849 92.568ZM430.649 89.688C430.649 87.8107 430.009 86.3173 428.729 85.208C427.449 84.0987 425.85 83.544 423.93 83.544C422.095 83.544 420.537 84.0773 419.257 85.144C418.02 86.2107 417.252 87.7253 416.953 89.688H430.649ZM482.433 74.776C484.951 74.776 487.148 75.288 489.025 76.312C490.945 77.336 492.417 78.68 493.441 80.344V75.288H504.385V110.936C504.385 114.221 503.724 117.187 502.401 119.832C501.121 122.52 499.137 124.653 496.449 126.232C493.804 127.811 490.497 128.6 486.529 128.6C481.239 128.6 476.951 127.341 473.665 124.824C470.38 122.349 468.503 118.979 468.033 114.712H478.849C479.191 116.077 480.001 117.144 481.281 117.912C482.561 118.723 484.14 119.128 486.017 119.128C488.279 119.128 490.071 118.467 491.393 117.144C492.759 115.864 493.441 113.795 493.441 110.936V105.88C492.375 107.544 490.903 108.909 489.025 109.976C487.148 111 484.951 111.512 482.433 111.512C479.489 111.512 476.823 110.765 474.433 109.272C472.044 107.736 470.145 105.581 468.737 102.808C467.372 99.992 466.689 96.7493 466.689 93.08C466.689 89.4107 467.372 86.1893 468.737 83.416C470.145 80.6427 472.044 78.5093 474.433 77.016C476.823 75.5227 479.489 74.776 482.433 74.776ZM493.441 93.144C493.441 90.4133 492.673 88.2587 491.137 86.68C489.644 85.1013 487.809 84.312 485.633 84.312C483.457 84.312 481.601 85.1013 480.065 86.68C478.572 88.216 477.825 90.3493 477.825 93.08C477.825 95.8107 478.572 97.9867 480.065 99.608C481.601 101.187 483.457 101.976 485.633 101.976C487.809 101.976 489.644 101.187 491.137 99.608C492.673 98.0293 493.441 95.8747 493.441 93.144ZM513.967 93.08C513.967 89.4107 514.65 86.1893 516.015 83.416C517.423 80.6427 519.322 78.5093 521.711 77.016C524.1 75.5227 526.767 74.776 529.711 74.776C532.228 74.776 534.426 75.288 536.303 76.312C538.223 77.336 539.695 78.68 540.719 80.344V75.288H551.663V111H540.719V105.944C539.652 107.608 538.159 108.952 536.239 109.976C534.362 111 532.164 111.512 529.647 111.512C526.746 111.512 524.1 110.765 521.711 109.272C519.322 107.736 517.423 105.581 516.015 102.808C514.65 99.992 513.967 96.7493 513.967 93.08ZM540.719 93.144C540.719 90.4133 539.951 88.2587 538.415 86.68C536.922 85.1013 535.087 84.312 532.911 84.312C530.735 84.312 528.879 85.1013 527.343 86.68C525.85 88.216 525.103 90.3493 525.103 93.08C525.103 95.8107 525.85 97.9867 527.343 99.608C528.879 101.187 530.735 101.976 532.911 101.976C535.087 101.976 536.922 101.187 538.415 99.608C539.951 98.0293 540.719 95.8747 540.719 93.144ZM574.365 63.64V111H563.421V63.64H574.365ZM597.08 63.64V111H586.136V63.64H597.08ZM642.515 92.568C642.515 93.592 642.451 94.6587 642.323 95.768H617.555C617.725 97.9867 618.429 99.6933 619.667 100.888C620.947 102.04 622.504 102.616 624.339 102.616C627.069 102.616 628.968 101.464 630.035 99.16H641.683C641.085 101.507 639.997 103.619 638.419 105.496C636.883 107.373 634.941 108.845 632.595 109.912C630.248 110.979 627.624 111.512 624.723 111.512C621.224 111.512 618.109 110.765 615.379 109.272C612.648 107.779 610.515 105.645 608.979 102.872C607.443 100.099 606.675 96.856 606.675 93.144C606.675 89.432 607.421 86.1893 608.915 83.416C610.451 80.6427 612.584 78.5093 615.315 77.016C618.045 75.5227 621.181 74.776 624.723 74.776C628.179 74.776 631.251 75.5013 633.939 76.952C636.627 78.4027 638.717 80.472 640.211 83.16C641.747 85.848 642.515 88.984 642.515 92.568ZM631.315 89.688C631.315 87.8107 630.675 86.3173 629.395 85.208C628.115 84.0987 626.515 83.544 624.595 83.544C622.76 83.544 621.203 84.0773 619.923 85.144C618.685 86.2107 617.917 87.7253 617.619 89.688H631.315ZM663.072 81.24C664.352 79.2773 665.952 77.7413 667.872 76.632C669.792 75.48 671.925 74.904 674.272 74.904V86.488H671.264C668.533 86.488 666.485 87.0853 665.12 88.28C663.755 89.432 663.072 91.48 663.072 94.424V111H652.128V75.288H663.072V81.24ZM719.823 75.288L697.423 127.96H685.647L693.839 109.784L679.311 75.288H691.535L699.791 97.624L707.983 75.288H719.823Z" fill="black"/>
<rect x="0.944275" y="80.2805" width="106" height="47" transform="rotate(-49.0255 0.944275 80.2805)" fill="#2E5FDC"/>
<rect x="43.2243" y="117.001" width="53" height="88" transform="rotate(-49.0255 43.2243 117.001)" fill="#A24192"/>
<rect x="86.6013" y="68.5817" width="82" height="49" transform="rotate(-49.0255 86.6013 68.5817)" fill="#E6BF35"/>
</svg>
